<?xml version="1.0" encoding="utf-8"?>
<!-- Generator: Adobe Illustrator 19.0.0, SVG Export Plug-In . SVG Version: 6.00 Build 0)  -->
<svg version="1.1" id="layer" xmlns="http://www.w3.org/2000/svg" xmlns:xlink="http://www.w3.org/1999/xlink" x="0px" y="0px"
	 viewBox="-153 -46 652 652" style="enable-background:new -153 -46 652 652;" xml:space="preserve">
<style type="text/css">
	.st0{fill:#BD1D1D;}
</style>
<path class="st0" d="M-126.8,350.7V345h5.3c9.2,0,11.9-10.3,11.9-19.9V222.2c-4-5.2-7.4-11.3-14-11.3h-3.2v-5.5h80.9l57.7,77.8
	v-61.6c0-5.9-6.6-10.5-14.5-10.5H-7v-5.7h43.8v5.7h-6.4c-11.1,0-10.8,8.2-10.8,25.4v114.2h-35.7l-86-116.5v91
	c0,9.6,2.1,19.9,12.3,19.9h6.8v5.7H-126.8z M44.9,350.7V345H61V211.1H44.9v-5.7h98.3v5.7H127V345h16.2v5.7H44.9z M152.3,350.7V345
	h16.2V211.1h-16.2v-5.7h116.8c21.9,0,52.1,7.8,52.1,34.6c0,25.6-28.3,32.3-49.1,32.7v4.2c4.5,0.2,9.2,0.6,13.6,1
	c19.8,1.9,39.2,11.7,39.2,34c0,41.5-49.4,38.8-78.9,38.8L152.3,350.7z M233.6,345h7.2c16.2,0,16.6-14.5,16.6-20.3v-27.5
	c0-16.1-8.1-19.3-18.7-19.3h-5.1L233.6,345z M233.6,272.1h9.1c8.3,0,12.1-6.9,12.1-16.4v-29.1c0-10.9-5.5-15.5-16.4-15.5h-4.9V272.1
	z M327.5,350.7V345h15.7V211.1h-15.7v-5.7h142.8l1.1,50.9h-7c-6-23.1-20.4-45.3-43.6-45.3h-13v63.5h3.6c6.6,0,21.5-6.9,23.4-28.5h7
	V310h-7c-1.9-22.9-16.8-29.8-23.4-29.8h-3.6V345h14.5c16.2,0,33-11.7,44.7-49.7h6.4l-1.1,55.3L327.5,350.7z"/>
</svg>
